<svg width="22" height="22" viewBox="0 0 22 22" fill="none" xmlns="http://www.w3.org/2000/svg">
<path d="M10.9998 3.6676V5.90335" stroke="currentColor" stroke-width="1.5" stroke-linecap="round" stroke-linejoin="round"/>
<path d="M19.2498 11.9167H17.4165" stroke="currentColor" stroke-width="1.5" stroke-linecap="round" stroke-linejoin="round"/>
<path d="M2.75 11.9167H4.58333" stroke="currentColor" stroke-width="1.5" stroke-linecap="round" stroke-linejoin="round"/>
<path d="M16.8301 6.08667L12.2871 10.6297" stroke="currentColor" stroke-width="1.5" stroke-linecap="round" stroke-linejoin="round"/>
<path d="M10.9827 10.0834C11.9957 10.0834 12.8161 10.9038 12.8161 11.9167C12.8161 12.9296 11.9957 13.75 10.9827 13.75C9.96983 13.75 9.14941 12.9296 9.14941 11.9167C9.14941 10.9038 9.96983 10.0834 10.9827 10.0834" stroke="currentColor" stroke-width="1.5" stroke-linecap="round" stroke-linejoin="round"/>
<path d="M5.16992 6.08667L7.11326 8.03" stroke="currentColor" stroke-width="1.5" stroke-linecap="round" stroke-linejoin="round"/>
<path d="M14.8869 15.8033L16.8302 17.7466L16.8339 17.7503C20.056 14.5282 20.056 9.30503 16.8339 6.08294C13.6118 2.86086 8.38865 2.86086 5.16656 6.08294C1.94448 9.30503 1.94448 14.5282 5.16656 17.7503L5.17023 17.7466L7.00356 15.9133" stroke="currentColor" stroke-width="1.5" stroke-linecap="round" stroke-linejoin="round"/>
</svg>
