<svg width="24" height="24" viewBox="0 0 24 24" fill="none" xmlns="http://www.w3.org/2000/svg">
<path d="M9.68481 9.6847C9.92184 8.66314 10.8523 7.95484 11.9001 7.99832C13.0727 7.93337 14.078 8.82697 14.151 9.99916C14.151 11.5037 12.0001 12 12.0001 13.0004" stroke="currentColor" stroke-width="1.5" stroke-linecap="round" stroke-linejoin="round"/>
<path d="M12.1253 15.7517C12.1252 15.8207 12.0692 15.8766 12.0002 15.8766C11.9311 15.8766 11.8752 15.8206 11.8752 15.7516C11.8751 15.6826 11.931 15.6266 12 15.6265C12.0333 15.6265 12.0651 15.6396 12.0886 15.6631C12.1121 15.6866 12.1253 15.7185 12.1253 15.7517" stroke="currentColor" stroke-width="1.5" stroke-linecap="round" stroke-linejoin="round"/>
<path fill-rule="evenodd" clip-rule="evenodd" d="M4.62861 17.1604C1.94551 13.3307 2.63502 8.08534 6.21672 5.07913C9.79842 2.07293 15.0839 2.30335 18.3903 5.60985C21.6968 8.91634 21.9273 14.2018 18.9211 17.7835C15.9149 21.3652 10.6695 22.0547 6.8398 19.3716L3.99688 20.0033L4.62861 17.1604Z" stroke="currentColor" stroke-width="1.5" stroke-linecap="round" stroke-linejoin="round"/>
</svg>
