<svg width="22" height="22" viewBox="0 0 22 22" fill="none" xmlns="http://www.w3.org/2000/svg">
<g>
<path d="M19.2499 10.3501C19.2499 14.5108 15.5392 17.8503 10.9999 17.8503C10.4123 17.8503 9.84029 17.7925 9.28662 17.6862" stroke="currentColor" stroke-width="1.5" stroke-linecap="round" stroke-linejoin="round"/>
<path d="M6.04908 16.3405C4.05167 14.9747 2.75 12.8095 2.75 10.3501" stroke="currentColor" stroke-width="1.5" stroke-linecap="round" stroke-linejoin="round"/>
<path d="M6.04931 16.3405C6.0484 17.1233 6.05023 18.1793 6.05023 19.2875" stroke="currentColor" stroke-width="1.5" stroke-linecap="round" stroke-linejoin="round"/>
<path d="M2.75 10.3501C2.75 6.18933 6.46067 2.85083 11 2.85083C15.5393 2.85083 19.25 6.19025 19.25 10.351" stroke="currentColor" stroke-width="1.5" stroke-linecap="round" stroke-linejoin="round"/>
<path d="M9.28564 17.6825L6.0498 19.2867" stroke="currentColor" stroke-width="1.5" stroke-linecap="round" stroke-linejoin="round"/>
<path d="M11.1619 10.3795C11.2514 10.469 11.2514 10.6141 11.1619 10.7036C11.0724 10.7931 10.9273 10.7931 10.8378 10.7036C10.7483 10.6141 10.7483 10.469 10.8378 10.3795C10.9273 10.29 11.0724 10.29 11.1619 10.3795" stroke="currentColor" stroke-width="1.5" stroke-linecap="round" stroke-linejoin="round"/>
<path d="M14.8289 10.3795C14.9184 10.469 14.9184 10.6141 14.8289 10.7036C14.7394 10.7931 14.5943 10.7931 14.5048 10.7036C14.4153 10.6141 14.4153 10.469 14.5048 10.3795C14.5943 10.29 14.7394 10.29 14.8289 10.3795" stroke="currentColor" stroke-width="1.5" stroke-linecap="round" stroke-linejoin="round"/>
<path d="M7.49538 10.3795C7.58487 10.469 7.58487 10.6141 7.49538 10.7036C7.40588 10.7931 7.26078 10.7931 7.17129 10.7036C7.08179 10.6141 7.08179 10.469 7.17129 10.3795C7.26078 10.29 7.40588 10.29 7.49538 10.3795" stroke="currentColor" stroke-width="1.5" stroke-linecap="round" stroke-linejoin="round"/>
</g>
</svg>
