<svg width="22" height="22" viewBox="0 0 22 22" fill="none" xmlns="http://www.w3.org/2000/svg">
<g>
<path d="M16.5 9.16663L16.5001 18.6047C16.5057 18.9931 16.262 19.3414 15.8953 19.4694C12.698 20.399 9.30216 20.399 6.10493 19.4694C5.73818 19.3414 5.49451 18.9931 5.50009 18.6047L5.5002 9.16663" stroke="currentColor" stroke-width="1.5" stroke-linecap="round" stroke-linejoin="round"/>
<path d="M10.9998 5.5V20.1667" stroke="currentColor" stroke-width="1.5" stroke-linecap="round" stroke-linejoin="round"/>
<path d="M5.50018 13.75L2.53751 13.0428C2.05053 12.9266 1.7469 12.4411 1.85551 11.9524L3.10435 6.33263C3.34964 5.22881 4.09049 4.29992 5.1121 3.81526L6.61157 3.10393C7.10273 2.8709 7.63956 2.75001 8.18319 2.75H13.8172C14.3608 2.75 14.8976 2.87088 15.3888 3.10389L16.8883 3.81522C17.9099 4.29988 18.6507 5.22878 18.896 6.33259L20.1448 11.9524C20.2535 12.4412 19.9498 12.9266 19.4628 13.0429L16.5002 13.75" stroke="currentColor" stroke-width="1.5" stroke-linecap="round" stroke-linejoin="round"/>
<path d="M14.2082 2.76819V2.76819C14.2082 3.4927 13.9204 4.18754 13.408 4.69985C12.8957 5.21216 12.2009 5.49997 11.4764 5.49997H10.5233C9.79877 5.49997 9.10393 5.21216 8.59163 4.69985C8.07932 4.18754 7.7915 3.4927 7.7915 2.76819V2.76819" stroke="currentColor" stroke-width="1.5" stroke-linecap="round" stroke-linejoin="round"/>
</g>
</svg>
