<svg width="22" height="22" viewBox="0 0 22 22" fill="none" xmlns="http://www.w3.org/2000/svg">
<g>
<path d="M11.0002 9.16666V7.24843L12.2673 6.54443C12.8996 6.19316 13.2918 5.52668 13.2918 4.80333C13.2169 3.6004 12.1853 2.68336 10.9819 2.74999C9.9066 2.70537 8.95175 3.43225 8.7085 4.4806" stroke="currentColor" stroke-width="1.5" stroke-linecap="round" stroke-linejoin="round"/>
<path fill-rule="evenodd" clip-rule="evenodd" d="M6.41667 15.125H15.5833C16.0896 15.125 16.5 15.5354 16.5 16.0417V19.25H5.5V16.0417C5.5 15.5354 5.91041 15.125 6.41667 15.125Z" stroke="currentColor" stroke-width="1.5" stroke-linecap="round" stroke-linejoin="round"/>
<path d="M16.5 16.5H17.6354C18.3474 16.5036 18.9765 16.037 19.1798 15.3545C19.383 14.6721 19.1117 13.9374 18.5137 13.5508L12.3552 9.56647C11.5304 9.03334 10.4696 9.03334 9.64485 9.56647L3.48629 13.5508C2.88829 13.9374 2.61699 14.6721 2.82024 15.3545C3.02349 16.037 3.65257 16.5036 4.36464 16.5H5.5" stroke="currentColor" stroke-width="1.5" stroke-linecap="round" stroke-linejoin="round"/>
</g>
</svg>
