<svg width="9" height="16" viewBox="0 0 9 16" fill="none" xmlns="http://www.w3.org/2000/svg">
<path opacity="0.4" d="M4.304 15.84V14.08C3.58933 14.0373 2.91733 13.9093 2.288 13.696C1.65867 13.472 1.10933 13.1627 0.64 12.768L1.184 11.456C1.696 11.8613 2.24 12.1653 2.816 12.368C3.40267 12.5707 4.064 12.672 4.8 12.672C5.64267 12.672 6.26667 12.512 6.672 12.192C7.088 11.872 7.296 11.4613 7.296 10.96C7.296 10.5333 7.152 10.1973 6.864 9.952C6.576 9.696 6.09067 9.49333 5.408 9.344L3.76 8.992C2.8 8.77867 2.08 8.432 1.6 7.952C1.12 7.46133 0.88 6.81067 0.88 6C0.88 5.392 1.01867 4.85333 1.296 4.384C1.584 3.91467 1.984 3.53067 2.496 3.232C3.008 2.93333 3.61067 2.74667 4.304 2.672V0.879999H5.616V2.672C6.17067 2.72533 6.70933 2.864 7.232 3.088C7.76533 3.30133 8.224 3.6 8.608 3.984L8.08 5.248C7.664 4.84267 7.19467 4.544 6.672 4.352C6.14933 4.14933 5.57333 4.048 4.944 4.048C4.208 4.048 3.616 4.224 3.168 4.576C2.73067 4.928 2.512 5.38667 2.512 5.952C2.512 6.38933 2.65067 6.736 2.928 6.992C3.20533 7.248 3.648 7.44533 4.256 7.584L5.904 7.936C6.928 8.14933 7.69067 8.496 8.192 8.976C8.69333 9.44533 8.944 10.0693 8.944 10.848C8.944 11.7333 8.63467 12.4587 8.016 13.024C7.39733 13.5787 6.59733 13.9147 5.616 14.032V15.84H4.304Z" fill="black"/>
</svg>
