<svg width="21" height="20" viewBox="0 0 21 20" fill="none" xmlns="http://www.w3.org/2000/svg">
<g clip-path="url(#clip0_386_3005)">
<path d="M20.4905 10.1871C20.4905 9.36771 20.4224 8.76977 20.2752 8.14969H10.6992V11.848H16.3201C16.2068 12.7671 15.5948 14.1512 14.2349 15.0813L14.2159 15.2051L17.2436 17.4969L17.4534 17.5174C19.3798 15.7789 20.4905 13.2211 20.4905 10.1871Z" fill="#4285F4"/>
<path d="M10.6992 19.9313C13.453 19.9313 15.7648 19.0454 17.4534 17.5174L14.2349 15.0813C13.3737 15.6682 12.2177 16.0779 10.6992 16.0779C8.00211 16.0779 5.71297 14.3395 4.89695 11.9366L4.77734 11.9466L1.62906 14.3273L1.58789 14.4391C3.26508 17.6945 6.71016 19.9313 10.6992 19.9313Z" fill="#34A853"/>
<path d="M4.89695 11.9366C4.68164 11.3166 4.55703 10.6521 4.55703 9.96565C4.55703 9.27908 4.68164 8.61473 4.88562 7.99466L4.87992 7.8626L1.69219 5.44366L1.58789 5.49214C0.896641 6.84305 0.5 8.36008 0.5 9.96565C0.5 11.5712 0.896641 13.0882 1.58789 14.4391L4.89695 11.9366Z" fill="#FBBC05"/>
<path d="M10.6992 3.85336C12.6144 3.85336 13.9063 4.66168 14.6429 5.33718L17.5213 2.59107C15.7535 0.985496 13.453 0 10.6992 0C6.71016 0 3.26508 2.23672 1.58789 5.49214L4.88563 7.99466C5.71297 5.59183 8.00211 3.85336 10.6992 3.85336Z" fill="#EB4335"/>
</g>
<defs>
<clipPath id="clip0_386_3005">
<rect width="20" height="20" fill="white" transform="translate(0.5)"/>
</clipPath>
</defs>
</svg>