<svg width="22" height="22" viewBox="0 0 22 22" fill="none" xmlns="http://www.w3.org/2000/svg">
<g>
<path d="M5.50031 11C4.62641 11.0002 3.87408 11.6171 3.70273 12.474L2.78611 17.0571C2.67839 17.5957 2.81782 18.1542 3.16604 18.579C3.51426 19.0037 4.03458 19.25 4.58384 19.25H17.4159C17.9652 19.25 18.4855 19.0037 18.8337 18.579C19.1819 18.1542 19.3214 17.5957 19.2137 17.0571L18.297 12.474C18.1256 11.6171 17.3733 11.0002 16.4994 11" stroke="currentColor" stroke-width="1.5" stroke-linecap="round" stroke-linejoin="round"/>
<path d="M7.79175 15.5833H14.2084" stroke="currentColor" stroke-width="1.5" stroke-linecap="round" stroke-linejoin="round"/>
<path fill-rule="evenodd" clip-rule="evenodd" d="M6.875 6.875V6.875C6.875 4.59683 8.72183 2.75 11 2.75V2.75C13.2782 2.75 15.125 4.59683 15.125 6.875V6.875C15.125 8.69611 13.0715 10.6398 11.8613 11.6269C11.3515 12.0134 10.6467 12.0132 10.137 11.6265C8.92787 10.6393 6.875 8.69584 6.875 6.875Z" stroke="currentColor" stroke-width="1.5" stroke-linecap="round" stroke-linejoin="round"/>
<path d="M10.9992 6.6458C10.8728 6.64628 10.7706 6.74909 10.7709 6.87554C10.7712 7.00199 10.8739 7.10429 11.0004 7.10413C11.1268 7.10397 11.2292 7.00142 11.2292 6.87497C11.2296 6.81394 11.2054 6.75533 11.1622 6.71225C11.1189 6.66918 11.0602 6.64524 10.9992 6.6458" stroke="currentColor" stroke-width="1.5" stroke-linecap="round" stroke-linejoin="round"/>
</g>
</svg>
