<svg width="22" height="22" viewBox="0 0 22 22" fill="none" xmlns="http://www.w3.org/2000/svg">
<g>
<path d="M19.2501 11H15.9675C15.2488 11 14.6667 11.5821 14.6667 12.3008V13.3659C14.6667 14.0846 15.2488 14.6667 15.9675 14.6667H19.2501" stroke="currentColor" stroke-width="1.5" stroke-linecap="round" stroke-linejoin="round"/>
<path fill-rule="evenodd" clip-rule="evenodd" d="M17.4167 19.25H4.58333C3.57042 19.25 2.75 18.4295 2.75 17.4166V8.24996C2.75 7.23704 3.57042 6.41663 4.58333 6.41663H17.4167C18.4296 6.41663 19.25 7.23704 19.25 8.24996V17.4166C19.25 18.4295 18.4296 19.25 17.4167 19.25Z" stroke="currentColor" stroke-width="1.5" stroke-linecap="round" stroke-linejoin="round"/>
<path d="M12.8333 6.41667L9.81475 3.39808C9.45633 3.03967 8.87608 3.03967 8.51858 3.39808L5.5 6.41667" stroke="currentColor" stroke-width="1.5" stroke-linecap="round" stroke-linejoin="round"/>
<path d="M11 4.58333L12.1853 3.39808C12.5437 3.03967 13.1239 3.03967 13.4814 3.39808L16.5 6.41667" stroke="currentColor" stroke-width="1.5" stroke-linecap="round" stroke-linejoin="round"/>
</g>
</svg>
