<svg width="22" height="22" viewBox="0 0 22 22" fill="none" xmlns="http://www.w3.org/2000/svg">
<g>
<path d="M16.5 9.16663L16.5001 18.6047C16.5057 18.9931 16.262 19.3414 15.8953 19.4694C12.698 20.399 9.30216 20.399 6.10493 19.4694C5.73818 19.3414 5.49451 18.9931 5.50009 18.6047L5.5002 9.16663" stroke="currentColor" stroke-width="1.5" stroke-linecap="round" stroke-linejoin="round"/>
<path d="M11.0001 5.5V20.1667" stroke="currentColor" stroke-width="1.5" stroke-linecap="round" stroke-linejoin="round"/>
<path d="M5.49993 13.75L2.53727 13.0428C2.05028 12.9266 1.74666 12.4411 1.85527 11.9524L3.10411 6.33263C3.3494 5.22881 4.09025 4.29992 5.11185 3.81526L6.61133 3.10393C7.10249 2.8709 7.63931 2.75001 8.18294 2.75H13.8169C14.3606 2.75 14.8974 2.87088 15.3885 3.10389L16.888 3.81522C17.9096 4.29988 18.6505 5.22878 18.8958 6.33259L20.1446 11.9524C20.2532 12.4412 19.9496 12.9266 19.4626 13.0429L16.4999 13.75" stroke="currentColor" stroke-width="1.5" stroke-linecap="round" stroke-linejoin="round"/>
<path d="M14.2084 2.76819V2.76819C14.2084 3.4927 13.9206 4.18754 13.4083 4.69985C12.896 5.21216 12.2011 5.49997 11.4766 5.49997H10.5235C9.79902 5.49997 9.10418 5.21216 8.59187 4.69985C8.07956 4.18754 7.79175 3.4927 7.79175 2.76819V2.76819" stroke="currentColor" stroke-width="1.5" stroke-linecap="round" stroke-linejoin="round"/>
</g>
</svg>
