<svg width="13" height="14" viewBox="0 0 13 14" fill="none" xmlns="http://www.w3.org/2000/svg">
<path d="M6.125 0.875C2.74258 0.875 0 3.61758 0 7C0 10.3824 2.74258 13.125 6.125 13.125C9.50742 13.125 12.25 10.3824 12.25 7C12.25 3.61758 9.50742 0.875 6.125 0.875ZM6.125 12.0859C3.3168 12.0859 1.03906 9.8082 1.03906 7C1.03906 4.1918 3.3168 1.91406 6.125 1.91406C8.9332 1.91406 11.2109 4.1918 11.2109 7C11.2109 9.8082 8.9332 12.0859 6.125 12.0859Z" fill="#009688"/>
<path d="M5.46875 4.59375C5.46875 4.7678 5.53789 4.93472 5.66096 5.05779C5.78403 5.18086 5.95095 5.25 6.125 5.25C6.29905 5.25 6.46597 5.18086 6.58904 5.05779C6.71211 4.93472 6.78125 4.7678 6.78125 4.59375C6.78125 4.4197 6.71211 4.25278 6.58904 4.12971C6.46597 4.00664 6.29905 3.9375 6.125 3.9375C5.95095 3.9375 5.78403 4.00664 5.66096 4.12971C5.53789 4.25278 5.46875 4.4197 5.46875 4.59375ZM6.45312 6.125H5.79688C5.73672 6.125 5.6875 6.17422 5.6875 6.23438V9.95312C5.6875 10.0133 5.73672 10.0625 5.79688 10.0625H6.45312C6.51328 10.0625 6.5625 10.0133 6.5625 9.95312V6.23438C6.5625 6.17422 6.51328 6.125 6.45312 6.125Z" fill="#009688"/>
</svg>
