<svg width="131" height="20" viewBox="0 0 131 20" fill="none" xmlns="http://www.w3.org/2000/svg">
<path d="M0.26 19V0.967999H9.64C11.1147 0.967999 12.3187 1.23867 13.252 1.78C14.204 2.32133 14.9133 3.07733 15.38 4.048C15.8467 5 16.08 6.11067 16.08 7.38C16.08 8.59333 15.772 9.66667 15.156 10.6C14.5587 11.5147 13.756 12.2147 12.748 12.7C12.9533 12.868 13.1307 13.0733 13.28 13.316C13.4293 13.54 13.5973 13.8573 13.784 14.268L15.856 19H10.368L8.464 14.66C8.31467 14.324 8.128 14.0907 7.904 13.96C7.69867 13.8107 7.4 13.736 7.008 13.736H5.524V19H0.26ZM5.524 9.704H8.296C9.06133 9.704 9.64933 9.508 10.06 9.116C10.4893 8.70533 10.704 8.12667 10.704 7.38C10.704 5.79333 9.95733 5 8.464 5H5.524V9.704ZM16.4654 19L20.2734 0.967999H33.9374L33.0974 5H24.6974L24.0534 7.94H31.4174L30.5494 12.028H23.1854L22.5694 14.968H30.9694L30.1294 19H16.4654ZM33.4006 19V0.967999H38.5246L43.0046 10.124L47.4566 0.967999H52.5526V19H47.2886V9.984L44.4046 15.92H41.5766L38.6646 9.984V19H33.4006ZM63.7362 19.28C60.7496 19.28 58.4629 18.552 56.8762 17.096C55.3082 15.64 54.5242 13.288 54.5242 10.04C54.5242 7.8 54.8789 5.99867 55.5882 4.636C56.2976 3.25467 57.3336 2.256 58.6962 1.64C60.0776 1.00533 61.7576 0.687999 63.7362 0.687999C65.7149 0.687999 67.3856 1.00533 68.7482 1.64C70.1296 2.256 71.1749 3.25467 71.8842 4.636C72.5936 5.99867 72.9482 7.8 72.9482 10.04C72.9482 13.288 72.1549 15.64 70.5682 17.096C68.9816 18.552 66.7042 19.28 63.7362 19.28ZM63.7362 14.8C65.0802 14.8 66.0509 14.4267 66.6482 13.68C67.2642 12.9147 67.5722 11.7013 67.5722 10.04C67.5722 8.26667 67.2642 7.016 66.6482 6.288C66.0509 5.54133 65.0802 5.168 63.7362 5.168C62.3922 5.168 61.4122 5.54133 60.7962 6.288C60.1989 7.016 59.9002 8.26667 59.9002 10.04C59.9002 11.7013 60.1989 12.9147 60.7962 13.68C61.4122 14.4267 62.3922 14.8 63.7362 14.8ZM73.3404 19L77.1484 0.967999H85.2124C86.6124 0.967999 87.8444 1.20133 88.9084 1.668C89.9911 2.13467 90.8311 2.85333 91.4284 3.824C92.0258 4.79467 92.3244 6.02667 92.3244 7.52C92.3244 7.912 92.2964 8.32267 92.2404 8.752C92.2031 9.18133 92.1378 9.62933 92.0444 10.096C91.6338 12.168 90.9991 13.8573 90.1404 15.164C89.2818 16.4707 88.1524 17.4413 86.7524 18.076C85.3711 18.692 83.6538 19 81.6004 19H73.3404ZM79.4444 14.968H81.5724C82.4498 14.968 83.2151 14.8467 83.8684 14.604C84.5218 14.3427 85.0818 13.8667 85.5484 13.176C86.0151 12.4667 86.3884 11.44 86.6684 10.096C86.7618 9.61067 86.8364 9.16267 86.8924 8.752C86.9484 8.34133 86.9764 7.968 86.9764 7.632C86.9764 6.624 86.7151 5.93333 86.1924 5.56C85.6698 5.18667 84.8391 5 83.7004 5H81.5724L79.4444 14.968ZM92.1256 19L95.9336 0.967999H103.998C105.398 0.967999 106.63 1.20133 107.694 1.668C108.776 2.13467 109.616 2.85333 110.214 3.824C110.811 4.79467 111.11 6.02667 111.11 7.52C111.11 7.912 111.082 8.32267 111.026 8.752C110.988 9.18133 110.923 9.62933 110.83 10.096C110.419 12.168 109.784 13.8573 108.926 15.164C108.067 16.4707 106.938 17.4413 105.538 18.076C104.156 18.692 102.439 19 100.386 19H92.1256ZM98.2296 14.968H100.358C101.235 14.968 102 14.8467 102.654 14.604C103.307 14.3427 103.867 13.8667 104.334 13.176C104.8 12.4667 105.174 11.44 105.454 10.096C105.547 9.61067 105.622 9.16267 105.678 8.752C105.734 8.34133 105.762 7.968 105.762 7.632C105.762 6.624 105.5 5.93333 104.978 5.56C104.455 5.18667 103.624 5 102.486 5H100.358L98.2296 14.968ZM121.131 19.28C118.144 19.28 115.857 18.552 114.271 17.096C112.703 15.64 111.919 13.288 111.919 10.04C111.919 7.8 112.273 5.99867 112.983 4.636C113.692 3.25467 114.728 2.256 116.091 1.64C117.472 1.00533 119.152 0.687999 121.131 0.687999C123.109 0.687999 124.78 1.00533 126.143 1.64C127.524 2.256 128.569 3.25467 129.279 4.636C129.988 5.99867 130.343 7.8 130.343 10.04C130.343 13.288 129.549 15.64 127.963 17.096C126.376 18.552 124.099 19.28 121.131 19.28ZM121.131 14.8C122.475 14.8 123.445 14.4267 124.043 13.68C124.659 12.9147 124.967 11.7013 124.967 10.04C124.967 8.26667 124.659 7.016 124.043 6.288C123.445 5.54133 122.475 5.168 121.131 5.168C119.787 5.168 118.807 5.54133 118.191 6.288C117.593 7.016 117.295 8.26667 117.295 10.04C117.295 11.7013 117.593 12.9147 118.191 13.68C118.807 14.4267 119.787 14.8 121.131 14.8Z" fill="currentColor"/>
</svg>
