<svg width="1200" height="172" viewBox="0 0 1200 172" fill="none" xmlns="http://www.w3.org/2000/svg">
<path d="M0 168.926V2.58297H86.5295C100.133 2.58297 111.24 5.07984 119.85 10.0736C128.632 15.0673 135.175 22.0414 139.48 30.9957C143.785 39.7778 145.938 50.0235 145.938 61.733C145.938 72.9259 143.097 82.8273 137.414 91.4372C131.904 99.8749 124.499 106.332 115.201 110.809C117.095 112.359 118.731 114.253 120.108 116.492C121.486 118.558 123.036 121.486 124.758 125.274L143.872 168.926H93.2453L75.6811 128.89C74.3035 125.791 72.5815 123.638 70.5151 122.433C68.6209 121.055 65.8658 120.366 62.2496 120.366H48.5599V168.926H0ZM48.5599 83.1717H74.1313C81.1914 83.1717 86.6156 81.3636 90.404 77.7474C94.3646 73.9591 96.3448 68.6209 96.3448 61.733C96.3448 47.0962 89.4569 39.7778 75.6811 39.7778H48.5599V83.1717Z" fill="black"/>
<path d="M149.493 168.926L184.622 2.58297H310.671L302.922 39.7778H225.433L219.492 66.899H287.424L279.417 104.61H211.485L205.802 131.732H283.291L275.543 168.926H149.493Z" fill="black"/>
<path d="M305.719 168.926V2.58297H352.987L394.315 87.0461L435.384 2.58297H482.394V168.926H433.834V85.7547L407.23 140.514H381.142L354.279 85.7547V168.926H305.719Z" fill="black"/>
<path d="M585.562 171.509C558.01 171.509 536.916 164.794 522.279 151.362C507.814 137.931 500.582 116.234 500.582 86.2712C500.582 65.6075 503.854 48.9904 510.397 36.4199C516.941 23.6772 526.498 14.4646 539.068 8.78211C551.811 2.92737 567.309 0 585.562 0C603.815 0 619.226 2.92737 631.797 8.78211C644.539 14.4646 654.183 23.6772 660.726 36.4199C667.27 48.9904 670.541 65.6075 670.541 86.2712C670.541 116.234 663.223 137.931 648.586 151.362C633.949 164.794 612.941 171.509 585.562 171.509ZM585.562 130.182C597.96 130.182 606.914 126.738 612.425 119.85C618.107 112.79 620.948 101.597 620.948 86.2712C620.948 69.9124 618.107 58.3752 612.425 51.6594C606.914 44.7715 597.96 41.3275 585.562 41.3275C573.163 41.3275 564.123 44.7715 558.44 51.6594C552.93 58.3752 550.175 69.9124 550.175 86.2712C550.175 101.597 552.93 112.79 558.44 119.85C564.123 126.738 573.163 130.182 585.562 130.182Z" fill="black"/>
<path d="M674.16 168.926L709.288 2.58297H783.678C796.592 2.58297 807.957 4.73545 817.773 9.04041C827.76 13.3454 835.509 19.975 841.02 28.9293C846.53 37.8836 849.285 49.2487 849.285 63.0245C849.285 66.6407 849.027 70.429 848.51 74.3896C848.166 78.3501 847.563 82.4829 846.702 86.7878C842.914 105.902 837.059 121.486 829.138 133.54C821.217 145.593 810.799 154.548 797.884 160.403C785.141 166.085 769.299 168.926 750.357 168.926H674.16ZM730.468 131.732H750.099C758.192 131.732 765.252 130.612 771.279 128.374C777.306 125.963 782.472 121.572 786.777 115.201C791.082 108.657 794.526 99.1861 797.109 86.7878C797.97 82.3107 798.659 78.1779 799.175 74.3896C799.692 70.6012 799.95 67.1573 799.95 64.0577C799.95 54.759 797.539 48.3877 792.718 44.9437C787.896 41.4997 780.234 39.7778 769.729 39.7778H750.099L730.468 131.732Z" fill="black"/>
<path d="M847.451 168.926L882.579 2.58297H956.969C969.884 2.58297 981.249 4.73545 991.064 9.04041C1001.05 13.3454 1008.8 19.975 1014.31 28.9293C1019.82 37.8836 1022.58 49.2487 1022.58 63.0245C1022.58 66.6407 1022.32 70.429 1021.8 74.3896C1021.46 78.3501 1020.85 82.4829 1019.99 86.7878C1016.2 105.902 1010.35 121.486 1002.43 133.54C994.508 145.593 984.09 154.548 971.175 160.403C958.432 166.085 942.59 168.926 923.648 168.926H847.451ZM903.759 131.732H923.39C931.483 131.732 938.543 130.612 944.57 128.374C950.597 125.963 955.763 121.572 960.068 115.201C964.373 108.657 967.817 99.1861 970.4 86.7878C971.261 82.3107 971.95 78.1779 972.466 74.3896C972.983 70.6012 973.241 67.1573 973.241 64.0577C973.241 54.759 970.831 48.3877 966.009 44.9437C961.188 41.4997 953.525 39.7778 943.021 39.7778H923.39L903.759 131.732Z" fill="black"/>
<path d="M1115.02 171.509C1087.47 171.509 1066.37 164.794 1051.74 151.362C1037.27 137.931 1030.04 116.234 1030.04 86.2712C1030.04 65.6075 1033.31 48.9904 1039.86 36.4199C1046.4 23.6772 1055.96 14.4646 1068.53 8.78211C1081.27 2.92737 1096.77 0 1115.02 0C1133.27 0 1148.68 2.92737 1161.26 8.78211C1174 14.4646 1183.64 23.6772 1190.18 36.4199C1196.73 48.9904 1200 65.6075 1200 86.2712C1200 116.234 1192.68 137.931 1178.04 151.362C1163.41 164.794 1142.4 171.509 1115.02 171.509ZM1115.02 130.182C1127.42 130.182 1136.37 126.738 1141.88 119.85C1147.57 112.79 1150.41 101.597 1150.41 86.2712C1150.41 69.9124 1147.57 58.3752 1141.88 51.6594C1136.37 44.7715 1127.42 41.3275 1115.02 41.3275C1102.62 41.3275 1093.58 44.7715 1087.9 51.6594C1082.39 58.3752 1079.63 69.9124 1079.63 86.2712C1079.63 101.597 1082.39 112.79 1087.9 119.85C1093.58 126.738 1102.62 130.182 1115.02 130.182Z" fill="black"/>
</svg>
