<svg width="1360" height="195" viewBox="0 0 1360 195" fill="none" xmlns="http://www.w3.org/2000/svg">
<path d="M0 191.45V2.92736H98.0668C113.484 2.92736 126.072 5.75716 135.83 11.4167C145.783 17.0763 153.199 24.9802 158.078 35.1284C162.957 45.0815 165.396 56.6934 165.396 69.9641C165.396 82.6493 162.176 93.8709 155.736 103.629C149.491 113.192 141.099 120.51 130.561 125.584C132.707 127.34 134.561 129.487 136.123 132.024C137.684 134.366 139.44 137.684 141.392 141.977L163.054 191.45H105.678L85.7719 146.076C84.2106 142.563 82.259 140.123 79.9171 138.757C77.7704 137.196 74.6479 136.415 70.5496 136.415H55.0345V191.45H0ZM55.0345 94.2612H84.0154C92.0169 94.2612 98.1644 92.2121 102.458 88.1138C106.946 83.8203 109.191 77.7704 109.191 69.9641C109.191 53.3757 101.384 45.0815 85.7719 45.0815H55.0345V94.2612Z" fill="#5E34AD"/>
<path d="M169.426 191.45L209.238 2.92736H352.094L343.312 45.0815H255.491L248.758 75.8188H325.747L316.673 118.558H239.683L233.243 149.296H321.064L312.281 191.45H169.426Z" fill="#5E34AD"/>
<path d="M346.481 191.45V2.92736H400.052L446.89 98.6523L493.435 2.92736H546.713V191.45H491.679V97.1886L461.527 159.249H431.96L401.516 97.1886V191.45H346.481Z" fill="#5E34AD"/>
<path d="M663.636 194.377C632.411 194.377 608.504 186.766 591.916 171.544C575.523 156.321 567.326 131.732 567.326 97.7741C567.326 74.3551 571.034 55.5224 578.45 41.2759C585.866 26.8342 596.697 16.3933 610.944 9.95306C625.386 3.31769 642.95 0 663.636 0C684.323 0 701.79 3.31769 716.036 9.95306C730.478 16.3933 741.407 26.8342 748.823 41.2759C756.239 55.5224 759.947 74.3551 759.947 97.7741C759.947 131.732 751.653 156.321 735.064 171.544C718.476 186.766 694.667 194.377 663.636 194.377ZM663.636 147.539C677.688 147.539 687.836 143.636 694.081 135.83C700.521 127.828 703.741 115.143 703.741 97.7741C703.741 79.2341 700.521 66.1585 694.081 58.5474C687.836 50.741 677.688 46.8379 663.636 46.8379C649.585 46.8379 639.339 50.741 632.899 58.5474C626.654 66.1585 623.532 79.2341 623.532 97.7741C623.532 115.143 626.654 127.828 632.899 135.83C639.339 143.636 649.585 147.539 663.636 147.539Z" fill="#5E34AD"/>
<path d="M764.047 191.45L803.86 2.92736H888.168C902.805 2.92736 915.685 5.36684 926.809 10.2458C938.128 15.1247 946.91 22.6383 953.155 32.7865C959.401 42.9347 962.523 55.8152 962.523 71.4278C962.523 75.5261 962.23 79.8195 961.645 84.3082C961.254 88.7968 960.571 93.4806 959.596 98.3596C955.302 120.022 948.667 137.684 939.69 151.345C930.712 165.006 918.905 175.154 904.268 181.79C889.827 188.23 871.872 191.45 850.405 191.45H764.047ZM827.864 149.296H850.112C859.284 149.296 867.286 148.027 874.116 145.49C880.947 142.758 886.802 137.781 891.681 130.561C896.56 123.145 900.463 112.411 903.39 98.3596C904.366 93.2855 905.147 88.6017 905.732 84.3082C906.318 80.0147 906.61 76.1116 906.61 72.5987C906.61 62.0602 903.878 54.8394 898.414 50.9362C892.949 47.033 884.265 45.0815 872.36 45.0815H850.112L827.864 149.296Z" fill="#5E34AD"/>
<path d="M960.444 191.45L1000.26 2.92736H1084.56C1099.2 2.92736 1112.08 5.36684 1123.21 10.2458C1134.52 15.1247 1143.31 22.6383 1149.55 32.7865C1155.8 42.9347 1158.92 55.8152 1158.92 71.4278C1158.92 75.5261 1158.63 79.8195 1158.04 84.3082C1157.65 88.7968 1156.97 93.4806 1155.99 98.3596C1151.7 120.022 1145.06 137.684 1136.09 151.345C1127.11 165.006 1115.3 175.154 1100.67 181.79C1086.22 188.23 1068.27 191.45 1046.8 191.45H960.444ZM1024.26 149.296H1046.51C1055.68 149.296 1063.68 148.027 1070.51 145.49C1077.34 142.758 1083.2 137.781 1088.08 130.561C1092.96 123.145 1096.86 112.411 1099.79 98.3596C1100.76 93.2855 1101.54 88.6017 1102.13 84.3082C1102.71 80.0147 1103.01 76.1116 1103.01 72.5987C1103.01 62.0602 1100.27 54.8394 1094.81 50.9362C1089.35 47.033 1080.66 45.0815 1068.76 45.0815H1046.51L1024.26 149.296Z" fill="#5E34AD"/>
<path d="M1263.69 194.377C1232.46 194.377 1208.56 186.766 1191.97 171.544C1175.58 156.321 1167.38 131.732 1167.38 97.7741C1167.38 74.3551 1171.09 55.5224 1178.5 41.2759C1185.92 26.8342 1196.75 16.3933 1211 9.95306C1225.44 3.31769 1243 0 1263.69 0C1284.38 0 1301.84 3.31769 1316.09 9.95306C1330.53 16.3933 1341.46 26.8342 1348.88 41.2759C1356.29 55.5224 1360 74.3551 1360 97.7741C1360 131.732 1351.71 156.321 1335.12 171.544C1318.53 186.766 1294.72 194.377 1263.69 194.377ZM1263.69 147.539C1277.74 147.539 1287.89 143.636 1294.13 135.83C1300.57 127.828 1303.79 115.143 1303.79 97.7741C1303.79 79.2341 1300.57 66.1585 1294.13 58.5474C1287.89 50.741 1277.74 46.8379 1263.69 46.8379C1249.64 46.8379 1239.39 50.741 1232.95 58.5474C1226.71 66.1585 1223.58 79.2341 1223.58 97.7741C1223.58 115.143 1226.71 127.828 1232.95 135.83C1239.39 143.636 1249.64 147.539 1263.69 147.539Z" fill="#5E34AD"/>
</svg>