<svg width="20" height="20" viewBox="0 0 20 20" fill="none" xmlns="http://www.w3.org/2000/svg">
<path d="M17.5031 10C17.5031 14.1439 14.1439 17.5031 10 17.5031" stroke="black" stroke-width="1.5" stroke-linecap="round" stroke-linejoin="round"/>
<path d="M2.49707 10C2.49707 5.85615 5.85633 2.49689 10.0002 2.49689" stroke="black" stroke-width="1.5" stroke-linecap="round" stroke-linejoin="round"/>
<path d="M2.49707 9.99999C2.49719 10.8789 2.6535 11.7507 2.95873 12.5749C3.09832 12.9577 3.49188 13.1856 3.89337 13.1163L4.71554 12.9713C5.38004 12.8542 5.83176 12.2309 5.73634 11.563L5.48888 9.8308C5.44097 9.49547 5.25908 9.19393 4.98482 8.99514C4.71055 8.79635 4.36737 8.71733 4.03379 8.77614L2.56602 9.03494" stroke="black" stroke-width="1.5" stroke-linecap="round" stroke-linejoin="round"/>
<path d="M17.5031 10C17.5031 5.85615 14.1439 2.49689 10 2.49689" stroke="black" stroke-width="1.5" stroke-linecap="round" stroke-linejoin="round"/>
<path d="M17.503 9.99999C17.5028 10.8789 17.3465 11.7507 17.0413 12.5749C16.9017 12.9577 16.5081 13.1856 16.1067 13.1163L15.2845 12.9713C14.62 12.8542 14.1683 12.2309 14.2637 11.563L14.5111 9.8308C14.5591 9.49547 14.7409 9.19393 15.0152 8.99514C15.2895 8.79635 15.6327 8.71733 15.9662 8.77614L17.434 9.03494" stroke="black" stroke-width="1.5" stroke-linecap="round" stroke-linejoin="round"/>
<path d="M11.245 10.4093C11.2424 10.4093 11.2402 10.4108 11.2392 10.4132C11.2382 10.4155 11.2388 10.4182 11.2406 10.42C11.2423 10.4217 11.245 10.4223 11.2473 10.4213C11.2497 10.4204 11.2512 10.4181 11.2512 10.4156C11.2513 10.4139 11.2507 10.4122 11.2495 10.411C11.2483 10.4099 11.2466 10.4092 11.245 10.4093" stroke="black" stroke-width="1.5" stroke-linecap="round" stroke-linejoin="round"/>
<path d="M8.75571 10.4118C8.75318 10.4118 8.75091 10.4134 8.74995 10.4157C8.74898 10.418 8.74952 10.4207 8.7513 10.4225C8.75308 10.4243 8.75576 10.4248 8.75809 10.4238C8.76042 10.4229 8.76193 10.4206 8.76193 10.4181C8.76204 10.4164 8.76142 10.4147 8.76023 10.4135C8.75904 10.4123 8.75738 10.4117 8.75571 10.4118" stroke="black" stroke-width="1.5" stroke-linecap="round" stroke-linejoin="round"/>
</svg>
